<svg id="Layer_1" data-name="Layer 1" xmlns="http://www.w3.org/2000/svg" viewBox="0 0 558.83 379.36"><defs><style>.cls-1{fill:#ff9a08;}.cls-2{fill:#00b72b;}</style></defs><path class="cls-1" d="M699.28,515.62c-2,0-4.34,2.14-5.81,3.88-26.61,31.67-60.21,46.66-101.76,43.06-77.37-6.7-126.31-90-93.57-160.33,4.07-8.77,9.59-16.87,15.27-25.08-17.17.2-34.35.41-51.53.54C436,426.06,440,490.48,473,537.59c38,54.21,101.55,78.85,167.77,63.06,47.55-11.34,81.82-40.36,104.72-85.21C728.9,515.44,714.08,515.29,699.28,515.62Z" transform="translate(-445.02 -226)"/><path class="cls-1" d="M755.54,405.78c1.36,4.93,2.37,10,2.37,10A132.54,132.54,0,0,1,760.37,445h-43c-.26-8.49-2.44-49.72-36-80.46a111.59,111.59,0,0,0-55.34-27.19c-.29,11.07-.57,20-.77,25.81-.44,12.95-1.08,45.82,1.42,50.94a17.26,17.26,0,0,0,4.12,5.38,39.37,39.37,0,1,1-53.35,57.88c-16.13-15.71-15.68-41.08.49-57.44a19.32,19.32,0,0,0,4.91-11.57c.37-35.2.48-70.41,0-105.61-.1-8,2.63-10.23,10-10.8C666.58,286.27,735.9,334.62,755.54,405.78Z" transform="translate(-445.02 -226)"/><path class="cls-2" d="M626.66,261a188.91,188.91,0,0,1,60.05,14.12c13.41,5.6,50.09,21.54,77.75,60.79,32,45.45,31.54,93.2,30.69,109,8.82.41,23,1,40.47,1.7,62.09,2.38,66.53,1.47,76.16,6.48,25.17,13.13,22.87,34,49.1,45,16.36,6.86,32.58,5.18,43,3V364.87c-22-6.52-36.2-3.47-45,.31-18.7,8-19.62,22.24-40.92,30.7-11.32,4.49-20.84,4.35-38.88,4.09A206.26,206.26,0,0,1,832,393.83a226.41,226.41,0,0,0-18-51.33c-7.64-15.52-26.63-53-68-81.66-48.54-33.67-99.08-35.23-118.67-34.79" transform="translate(-445.02 -226)"/></svg>